<?xml version="1.0" encoding="UTF-8" standalone="no"?>
<svg
   xmlns:dc="http://purl.org/dc/elements/1.1/"
   xmlns:cc="http://creativecommons.org/ns#"
   xmlns:rdf="http://www.w3.org/1999/02/22-rdf-syntax-ns#"
   xmlns:svg="http://www.w3.org/2000/svg"
   xmlns="http://www.w3.org/2000/svg"
   xmlns:sodipodi="http://sodipodi.sourceforge.net/DTD/sodipodi-0.dtd"
   xmlns:inkscape="http://www.inkscape.org/namespaces/inkscape"
   version="1.0"
   width="100%"
   height="100%"
   viewBox="0 0 48 48"
   id="svg2985"
   style="display:inline"
   inkscape:version="0.48.4 r9939"
   sodipodi:docname="robot21.svg"
   inkscape:export-filename="/home/bastian/projekte/jsprogbot/artwork/robot/robot21_2.png"
   inkscape:export-xdpi="165.45"
   inkscape:export-ydpi="165.45">
  <metadata
     id="metadata6822">
    <rdf:RDF>
      <cc:Work
         rdf:about="">
        <dc:format>image/svg+xml</dc:format>
        <dc:type
           rdf:resource="http://purl.org/dc/dcmitype/StillImage" />
        <dc:title></dc:title>
      </cc:Work>
    </rdf:RDF>
  </metadata>
  <sodipodi:namedview
     pagecolor="#ffffff"
     bordercolor="#666666"
     borderopacity="1"
     objecttolerance="10"
     gridtolerance="10"
     guidetolerance="10"
     inkscape:pageopacity="0"
     inkscape:pageshadow="2"
     inkscape:window-width="1600"
     inkscape:window-height="847"
     id="namedview6820"
     showgrid="false"
     inkscape:zoom="16.000001"
     inkscape:cx="21.009313"
     inkscape:cy="23.716987"
     inkscape:window-x="0"
     inkscape:window-y="0"
     inkscape:window-maximized="1"
     inkscape:current-layer="layer4" />
  <defs
     id="defs3" />
  <g
     inkscape:groupmode="layer"
     id="layer9"
     inkscape:label="Hidden"
     style="display:inline">
    <g
       style="display:inline"
       id="g6933">
      <path
         d="m 9.1072464,32.79581 5.7699976,-2.73"
         id="p4084-3"
         style="fill:none;stroke:#975e29;stroke-width:0.40000001;stroke-linecap:butt;stroke-linejoin:miter;stroke-miterlimit:4;stroke-opacity:1;stroke-dasharray:none;display:inline"
         inkscape:connector-curvature="0" />
      <path
         d="m 6.4075856,32.30581 5.8599944,-2.73"
         id="p4084-9-0"
         style="fill:none;stroke:#975e29;stroke-width:0.40000001;stroke-linecap:round;stroke-linejoin:miter;stroke-miterlimit:4;stroke-opacity:1;stroke-dasharray:none;display:inline"
         inkscape:connector-curvature="0" />
      <path
         d="m 12.732332,33.432082 5.47,-2.59"
         id="p4082-0"
         style="fill:none;stroke:#975e29;stroke-width:0.5;stroke-linecap:round;stroke-linejoin:miter;stroke-miterlimit:4;stroke-opacity:1;stroke-dasharray:none;display:inline"
         inkscape:connector-curvature="0" />
      <path
         d="m 15.430124,35.21853 5.79,-2.6"
         id="p4080-1"
         style="fill:none;stroke:#975e29;stroke-width:0.60000002;stroke-linecap:round;stroke-linejoin:miter;stroke-miterlimit:4;stroke-opacity:1;stroke-dasharray:none;display:inline"
         inkscape:connector-curvature="0" />
      <path
         d="m 16.989105,38.041912 5.56,-2.62"
         id="p4078-3"
         style="fill:none;stroke:#975e29;stroke-width:0.69;stroke-linecap:butt;stroke-linejoin:miter;stroke-miterlimit:4;stroke-opacity:1;stroke-dasharray:none;display:inline"
         inkscape:connector-curvature="0" />
      <path
         d="m 16.609576,40.558813 5.73,-2.66"
         id="p4076-2"
         style="fill:none;stroke:#975e29;stroke-width:0.60000002;stroke-linecap:round;stroke-linejoin:miter;stroke-miterlimit:4;stroke-opacity:1;stroke-dasharray:none;display:inline"
         inkscape:connector-curvature="0" />
    </g>
    <g
       style="display:inline"
       id="g7018">
      <path
         d="m 34.848322,26.531761 5.79,-2.6"
         id="p4080-7-1"
         style="fill:none;stroke:#975e29;stroke-width:0.60000002;stroke-linecap:round;stroke-linejoin:miter;stroke-miterlimit:4;stroke-opacity:1;stroke-dasharray:none;display:inline"
         inkscape:connector-curvature="0" />
      <path
         d="m 32.266786,24.585457 5.47,-2.58"
         id="p4082-6-8"
         style="fill:none;stroke:#975e29;stroke-width:0.5;stroke-linecap:round;stroke-linejoin:miter;stroke-miterlimit:4;stroke-opacity:1;stroke-dasharray:none;display:inline"
         inkscape:connector-curvature="0" />
      <path
         d="m 36.597009,29.113262 5.56,-2.62"
         id="p4078-5-8"
         style="fill:none;stroke:#975e29;stroke-width:0.69;stroke-linecap:butt;stroke-linejoin:miter;stroke-miterlimit:4;stroke-opacity:1;stroke-dasharray:none;display:inline"
         inkscape:connector-curvature="0" />
    </g>
  </g>
  <g
     inkscape:groupmode="layer"
     id="layer4"
     inkscape:label="Visible"
     style="display:inline">
    <path
       inkscape:connector-curvature="0"
       style="fill:#ffc453;fill-opacity:1;fill-rule:nonzero;stroke:none;marker:none;visibility:visible;display:inline;overflow:visible;enable-background:accumulate"
       id="p3881-2"
       d="m 29.73,20.24 c -0.68,0.03 -1.26,0.47 -1.88,0.72 -1.04,0.45 -1.91,0.92 -2.91,1.36 -0.56,0.27 -1.16,0.51 -1.71,0.78 -0.94,0.68 -0.81,2.04 -0.38,2.97 0.51,1.25 1.49,2.23 2.66,2.81 2.03,0.96 4.12,2.01 6.09,3.13 1.12,0.68 2.6,1.24 3.84,0.56 1.88,-0.93 3.85,-1.75 5.69,-2.66 1.13,-0.75 1.29,-2.32 0.97,-3.53 -0.58,-2.22 -2.35,-4.21 -4.62,-4.77 -0.79,-0.2 -1.7,-0.3 -2.54,-0.47 -1.73,-0.29 -3.47,-0.66 -5.21,-0.9 l 0,0 z" />
    <path
       inkscape:connector-curvature="0"
       style="fill:#df9e1f;fill-opacity:1;fill-rule:nonzero;stroke:none;marker:none;visibility:visible;display:inline;overflow:visible;enable-background:accumulate"
       id="p4122-0"
       d="m 40.97,24.04 -6.13,2.91 c 0,0 -2.66,2.16 -5.03,4.09 0.6,0.32 1.21,0.64 1.78,0.97 1.12,0.68 2.6,1.24 3.85,0.56 0.81,-0.38 1.63,-0.76 2.44,-1.16 0.03,-0.01 0.06,-0.02 0.09,-0.03 0.08,-0.04 0.17,-0.08 0.25,-0.12 0.04,-0.02 0.09,-0.01 0.12,-0.03 0.93,-0.43 1.87,-0.87 2.79,-1.32 1.12,-0.75 1.28,-2.32 0.96,-3.53 -0.21,-0.83 -0.6,-1.63 -1.12,-2.34 l 0,0 z" />
    <path
       inkscape:connector-curvature="0"
       style="fill:#b77711;fill-opacity:1;stroke:none;display:inline"
       id="p4239-2"
       d="m 42.13,26.48 -11.47,5.03 c 0.31,0.17 0.63,0.33 0.93,0.5 1.12,0.68 2.6,1.24 3.85,0.56 0.81,-0.38 1.63,-0.76 2.44,-1.16 0.03,-0.01 0.06,-0.02 0.09,-0.03 0.08,-0.04 0.17,-0.08 0.25,-0.12 0.04,-0.02 0.09,-0.01 0.12,-0.03 0.93,-0.43 1.87,-0.87 2.79,-1.32 1.09,-0.73 1.28,-2.24 1,-3.43 l 0,0 z" />
    <path
       inkscape:connector-curvature="0"
       style="fill:none;stroke:#f1c057;stroke-width:0.69;stroke-linecap:butt;stroke-linejoin:miter;stroke-miterlimit:4;stroke-opacity:1;stroke-dasharray:none;display:inline"
       id="p4078-2-1"
       d="M 36.11,28.23 41.67,25.6" />
    <path
       inkscape:connector-curvature="0"
       style="fill:none;stroke:#d6bb68;stroke-width:0.60000002;stroke-linecap:round;stroke-linejoin:miter;stroke-miterlimit:4;stroke-opacity:1;stroke-dasharray:none;display:inline"
       id="p4076-6-9"
       d="M 36.27,31.04 42,28.39" />
    <g
       style="display:inline"
       id="g7012">
      <path
         d="M 30.53,24.13 36,21.55"
         id="p4082-6"
         style="fill:none;stroke:#975e29;stroke-width:0.5;stroke-linecap:round;stroke-linejoin:miter;stroke-miterlimit:4;stroke-opacity:1;stroke-dasharray:none;display:inline"
         inkscape:connector-curvature="0" />
      <path
         d="m 33.66,25.23 5.79,-2.6"
         id="p4080-7"
         style="fill:none;stroke:#975e29;stroke-width:0.60000002;stroke-linecap:round;stroke-linejoin:miter;stroke-miterlimit:4;stroke-opacity:1;stroke-dasharray:none;display:inline"
         inkscape:connector-curvature="0" />
      <path
         d="m 35.88,27.85 5.56,-2.62"
         id="p4078-5"
         style="fill:none;stroke:#975e29;stroke-width:0.69;stroke-linecap:butt;stroke-linejoin:miter;stroke-miterlimit:4;stroke-opacity:1;stroke-dasharray:none;display:inline"
         inkscape:connector-curvature="0" />
      <path
         d="m 36.25,30.59 5.72,-2.66"
         id="p4076-7"
         style="fill:none;stroke:#975e29;stroke-width:0.60000002;stroke-linecap:round;stroke-linejoin:miter;stroke-miterlimit:4;stroke-opacity:1;stroke-dasharray:none;display:inline"
         inkscape:connector-curvature="0" />
    </g>
    <path
       inkscape:connector-curvature="0"
       style="fill:none;stroke:#2c1b06;stroke-width:0.69;stroke-miterlimit:4;stroke-opacity:1;stroke-dasharray:none;marker:none;visibility:visible;display:inline;overflow:visible;enable-background:accumulate"
       id="p3881-6-0"
       d="m 29.73,20.24 c -0.68,0.03 -1.26,0.47 -1.88,0.72 -1.04,0.45 -1.91,0.92 -2.91,1.36 -0.56,0.27 -1.16,0.51 -1.71,0.78 -0.94,0.68 -0.81,2.04 -0.38,2.97 0.51,1.25 1.49,2.23 2.66,2.81 2.03,0.96 4.12,2.01 6.09,3.13 1.12,0.68 2.6,1.24 3.84,0.56 1.92,-0.93 3.87,-1.77 5.69,-2.66 1.13,-0.75 1.29,-2.32 0.97,-3.53 -0.58,-2.22 -2.35,-4.21 -4.62,-4.77 -0.79,-0.2 -1.7,-0.3 -2.54,-0.47 -1.73,-0.29 -3.47,-0.66 -5.21,-0.9 l 0,0 z" />
    <g
       style="display:inline"
       id="g4448">
      <path
         d="M 23.84,16.35 9.34,23.6 c 0,3.27 0,6.27 0,9.25 l 14.5,7.25 14.5,-7.25 c 0,-3.03 0,-6.76 0,-9.25 l -14.5,-7.25 z"
         id="p2993-7"
         style="fill:#1bac25;fill-opacity:1;stroke:none;display:inline"
         inkscape:connector-curvature="0" />
      <path
         d="m 14.27,21.14 -4.93,2.47 0,9.25 14.43,7.21 0,-11.12 -9.5,-7.81 0,0 z"
         id="p4502"
         style="fill:#004c05;fill-opacity:1;stroke:none"
         inkscape:connector-curvature="0" />
      <path
         d="m 23.84,30.85 -14.5,-7.25 14.5,-7.25 14.5,7.25 -14.5,7.25 z"
         id="p2993-7-9"
         style="fill:#4fda61;fill-opacity:1;stroke:none;display:inline"
         inkscape:connector-curvature="0" />
      <path
         d="m 23.77,31 0,8.94"
         id="p3111"
         style="fill:none;stroke:#67e442;stroke-width:1.5;stroke-linecap:butt;stroke-linejoin:miter;stroke-miterlimit:4;stroke-opacity:1;stroke-dasharray:none"
         inkscape:connector-curvature="0" />
      <path
         d="m 21.43,17.56 -8.56,4.25 6.47,3.25 8.56,-4.28 -6.47,-3.22 z"
         id="p2993-7-9-7"
         style="fill:none;stroke:#1d5f22;stroke-width:0.40000001;stroke-miterlimit:4;stroke-opacity:1;stroke-dasharray:none;display:inline"
         inkscape:connector-curvature="0" />
      <path
         d="M 38.34,23.6 23.84,30.85 9.34,23.6"
         id="p2993-7-9-4"
         style="fill:none;stroke:#97fd85;stroke-linejoin:bevel;stroke-opacity:1;display:inline"
         inkscape:connector-curvature="0" />
      <path
         d="m 11.81,29.81 0,-2.94 5.04,2.51 0,2.43"
         id="p4705"
         style="fill:none;stroke:#278e2e;stroke-width:0.30000001;stroke-linecap:butt;stroke-linejoin:bevel;stroke-miterlimit:4;stroke-opacity:1;stroke-dasharray:none"
         inkscape:connector-curvature="0" />
      <path
         d="M 23.84,16.35 9.34,23.6 c 0,3.27 0,6.27 0,9.25 l 14.5,7.25 14.5,-7.25 c 0,-3.03 0,-6.76 0,-9.25 l -14.5,-7.25 z"
         id="p2993-7-3"
         style="fill:none;stroke:#042d08;stroke-opacity:1;display:inline"
         inkscape:connector-curvature="0" />
      <path
         d="m 29.46,18.54 c -1.73,-0.08 -3.81,0.79 -4.94,2.12 -1,1.18 -1.19,2.28 -0.75,3.03 -0.35,1.67 -0.06,3.01 1.75,3.41 1.84,0.4 4.37,-0.51 5.66,-2.03 1,-1.18 0.95,-2.12 0.84,-3.11 C 31.96,20.13 32,19.03 30.18,18.63 29.95,18.58 29.71,18.55 29.46,18.54 l 0,0 z"
         id="p4109"
         style="fill:#042d08;fill-opacity:1;fill-rule:nonzero;stroke:#042d08;stroke-width:0.60000002;stroke-linecap:round;stroke-linejoin:miter;stroke-miterlimit:4;stroke-opacity:1;stroke-dasharray:none;stroke-dashoffset:0;marker:none;visibility:visible;display:inline;overflow:visible;enable-background:accumulate"
         inkscape:connector-curvature="0" />
      <path
         d="m 33.27,7.66 -14.5,7.25 c 0,2.68 0,5.28 0,6.63 l 7.63,3.81 14.5,-7.25 c 0,-2.25 0,-4.96 0,-6.63 L 33.27,7.66 z"
         id="p2993-7-9-8"
         style="fill:#1bac25;fill-opacity:1;stroke:none;display:inline"
         inkscape:connector-curvature="0" />
      <path
         d="m 39.77,12.88 -12.5,6.25 0,4.34 12.5,-6.25 0,-4.34 z"
         id="p2993-7-9-8-8-5"
         style="fill:#4fda61;fill-opacity:1;stroke:none;display:inline"
         inkscape:connector-curvature="0" />
      <path
         d="m 22.06,13.25 -3.29,1.66 0,6.63 7.6,3.81 0,-8.06 0.09,-0.32 -4.4,-3.72 z"
         id="p4170"
         style="fill:#004c05;fill-opacity:1;stroke:none"
         inkscape:connector-curvature="0" />
      <path
         d="m 26.36,18.74 0,6.24"
         id="p5148"
         style="fill:none;stroke:#67e442;stroke-width:0.5;stroke-linecap:butt;stroke-linejoin:miter;stroke-miterlimit:4;stroke-opacity:1;stroke-dasharray:none;stroke-dashoffset:0;marker:none;visibility:visible;display:inline;overflow:visible;enable-background:accumulate"
         inkscape:connector-curvature="0" />
      <path
         d="m 33.27,7.66 -14.5,7.25 7.63,3.81 14.5,-7.25 -7.63,-3.81 z"
         id="p2993-7-9-8-8"
         style="fill:#4fda61;fill-opacity:1;stroke:none;display:inline"
         inkscape:connector-curvature="0" />
      <path
         d="m 18.77,14.91 7.63,3.81 14.5,-7.25"
         id="p2993-7-9-8-8-57"
         style="fill:none;stroke:#97fd85;stroke-width:0.5;stroke-linecap:butt;stroke-linejoin:bevel;stroke-miterlimit:4;stroke-opacity:1;stroke-dasharray:none;stroke-dashoffset:0;marker:none;visibility:visible;display:inline;overflow:visible;enable-background:accumulate"
         inkscape:connector-curvature="0" />
      <path
         d="m 33.27,7.66 -14.5,7.25 c 0,2.68 0,5.28 0,6.63 l 7.63,3.81 14.5,-7.25 c 0,-2.25 0,-4.96 0,-6.63 L 33.27,7.66 z"
         id="p2993-7-9-8-2"
         style="fill:none;stroke:#042d08;stroke-width:1;stroke-linecap:butt;stroke-linejoin:miter;stroke-miterlimit:4;stroke-opacity:1;stroke-dasharray:none;stroke-dashoffset:0;marker:none;visibility:visible;display:inline;overflow:visible;enable-background:accumulate"
         inkscape:connector-curvature="0" />
      <path
         d="m 39.77,12.88 -4.28,2.16 4.28,2.12 0,-4.28 z"
         id="p2993-7-9-8-8-5-5"
         style="fill:#004c05;fill-opacity:1;stroke:none;display:inline"
         inkscape:connector-curvature="0" />
      <path
         d="m 27.28,31.43 8.51,-4.24"
         id="p5229-8"
         style="fill:none;stroke:#58ed3e;stroke-width:0.5;stroke-linecap:butt;stroke-linejoin:miter;stroke-miterlimit:4;stroke-opacity:1;stroke-dasharray:none;display:inline"
         inkscape:connector-curvature="0" />
      <path
         d="m 26.96,30.75 c -0.04,0.03 -1.14,0.67 -1.21,0.72 l 0,7 6.15,3.09 c 0.08,-0.04 1.16,-0.68 1.22,-0.72 l 0,-7 -6.16,-3.09 z"
         id="p4502-0-2"
         style="fill:#4fda61;fill-opacity:1;stroke:none;display:inline"
         inkscape:connector-curvature="0" />
      <path
         d="m 33.12,33.94 -7.37,4.25 0,0.28 6.15,3.09 c 0.08,-0.04 1.16,-0.68 1.22,-0.72 l 0,-6.9 z"
         id="p4925"
         style="fill:#1bac25;fill-opacity:1;fill-rule:nonzero;stroke:none;marker:none;visibility:visible;display:inline;overflow:visible;enable-background:accumulate"
         inkscape:connector-curvature="0" />
      <path
         d="m 25.75,31.47 0,7 6.15,3.09 0,-7 -6.15,-3.09 z"
         id="p4502-0"
         style="fill:#004c05;fill-opacity:1;stroke:none;display:inline"
         inkscape:connector-curvature="0" />
      <path
         d="m 27.4,30.97 8.51,-4.24"
         id="p5229"
         style="fill:none;stroke:#0b3b0e;stroke-width:0.5;stroke-linecap:butt;stroke-linejoin:miter;stroke-miterlimit:4;stroke-opacity:1;stroke-dasharray:none"
         inkscape:connector-curvature="0" />
      <path
         d="m 26.17,38.71 5.73,2.85 c 0.08,-0.04 1.16,-0.68 1.22,-0.72 l 0,-7 -6.16,-3.09"
         id="p4502-0-2-0"
         style="fill:none;stroke:#042d08;stroke-width:0.60000002;stroke-linecap:round;stroke-miterlimit:4;stroke-opacity:1;stroke-dasharray:none;display:inline"
         inkscape:connector-curvature="0" />
      <path
         d="m 36.57,25.97 c -0.05,0.03 -1.15,0.67 -1.22,0.72 l 0,7 6.15,3.09 c 0.08,-0.04 1.16,-0.68 1.22,-0.72 l 0,-7 -6.15,-3.09 z"
         id="p4502-0-2-4"
         style="fill:#4fda61;fill-opacity:1;stroke:none;display:inline"
         inkscape:connector-curvature="0" />
      <path
         d="m 42.72,29.16 -7.37,4.25 0,0.28 6.15,3.09 c 0.08,-0.04 1.16,-0.68 1.22,-0.72 l 0,-6.9 z"
         id="p4925-0"
         style="fill:#1bac25;fill-opacity:1;fill-rule:nonzero;stroke:none;marker:none;visibility:visible;display:inline;overflow:visible;enable-background:accumulate"
         inkscape:connector-curvature="0" />
      <path
         d="m 35.35,26.69 0,7 6.15,3.09 0,-7 -6.15,-3.09 0,0 z"
         id="p4502-0-1"
         style="fill:#004c05;fill-opacity:1;stroke:none;display:inline"
         inkscape:connector-curvature="0" />
      <path
         d="m 35.77,33.93 5.73,2.85 c 0.08,-0.04 1.16,-0.68 1.22,-0.72 l 0,-7 -6.15,-3.09"
         id="p4502-0-2-0-9"
         style="fill:none;stroke:#042d08;stroke-width:0.60000002;stroke-linecap:round;stroke-miterlimit:4;stroke-opacity:1;stroke-dasharray:none;display:inline"
         inkscape:connector-curvature="0" />
      <path
         d="m 39.28,13.12 -12,6 0,3.78 12,-6 0,-3.78 z"
         id="p2993-7-9-8-8-5-9"
         style="fill:#1a1a1a;fill-opacity:1;stroke:none;display:inline"
         inkscape:connector-curvature="0" />
    </g>
    <path
       inkscape:connector-curvature="0"
       style="fill:#ffc453;fill-opacity:1;fill-rule:nonzero;stroke:none;marker:none;visibility:visible;display:inline;overflow:visible;enable-background:accumulate"
       id="p3881"
       d="m 10.31,29.11 c -0.68,0.03 -1.25,0.47 -1.87,0.71 -1.04,0.46 -1.92,0.93 -2.91,1.38 -0.56,0.27 -1.16,0.51 -1.72,0.78 -0.94,0.68 -0.8,2.03 -0.37,2.97 0.5,1.25 1.49,2.23 2.65,2.81 2.04,0.96 4.13,2.01 6.1,3.13 1.11,0.68 2.59,1.24 3.84,0.56 1.88,-0.93 3.85,-1.75 5.69,-2.66 1.12,-0.75 1.29,-2.32 0.97,-3.53 -0.59,-2.22 -2.35,-4.22 -4.63,-4.78 -0.79,-0.2 -1.69,-0.3 -2.53,-0.47 -1.74,-0.29 -3.48,-0.66 -5.22,-0.9 l 0,0 z" />
    <path
       inkscape:connector-curvature="0"
       style="fill:#df9e1f;fill-opacity:1;fill-rule:nonzero;stroke:none;marker:none;visibility:visible;display:inline;overflow:visible;enable-background:accumulate"
       id="p4122"
       d="m 21.56,32.92 -6.13,2.9 c 0,0 -2.66,2.17 -5.03,4.1 0.6,0.32 1.2,0.64 1.78,0.97 1.12,0.68 2.6,1.24 3.84,0.56 0.81,-0.38 1.63,-0.76 2.44,-1.16 0.03,-0.01 0.06,-0.02 0.1,-0.03 0.08,-0.04 0.16,-0.08 0.25,-0.12 0.04,-0.02 0.08,-0.01 0.12,-0.03 0.92,-0.43 1.86,-0.87 2.78,-1.32 1.12,-0.75 1.29,-2.32 0.97,-3.53 -0.22,-0.83 -0.61,-1.63 -1.12,-2.34 z" />
    <path
       inkscape:connector-curvature="0"
       style="fill:#b77711;fill-opacity:1;stroke:none;display:inline"
       id="p4239"
       d="m 22.71,35.36 -11.47,5.03 c 0.32,0.17 0.64,0.33 0.94,0.5 1.12,0.68 2.6,1.24 3.84,0.56 0.81,-0.38 1.63,-0.76 2.44,-1.16 0.03,-0.01 0.06,-0.02 0.1,-0.03 0.08,-0.04 0.16,-0.08 0.25,-0.12 0.04,-0.02 0.08,-0.01 0.12,-0.03 0.92,-0.43 1.86,-0.87 2.78,-1.32 1.1,-0.73 1.29,-2.24 1,-3.43 z" />
    <path
       inkscape:connector-curvature="0"
       style="fill:none;stroke:#f1c057;stroke-width:0.69;stroke-linecap:butt;stroke-linejoin:miter;stroke-miterlimit:4;stroke-opacity:1;stroke-dasharray:none;display:inline"
       id="p4078-2"
       d="m 16.7,37.11 5.56,-2.63" />
    <path
       inkscape:connector-curvature="0"
       style="fill:none;stroke:#d6bb68;stroke-width:0.60000002;stroke-linecap:round;stroke-linejoin:miter;stroke-miterlimit:4;stroke-opacity:1;stroke-dasharray:none;display:inline"
       id="p4076-6"
       d="m 16.86,39.92 5.73,-2.65" />
    <g
       style="display:inline"
       id="g6941">
      <path
         d="m 7.8,32.45 5.77,-2.73"
         id="p4084"
         style="fill:none;stroke:#975e29;stroke-width:0.40000001;stroke-linecap:butt;stroke-linejoin:miter;stroke-miterlimit:4;stroke-opacity:1;stroke-dasharray:none"
         inkscape:connector-curvature="0" />
      <path
         d="m 5.38,31.96 5.86,-2.73"
         id="p4084-9"
         style="fill:none;stroke:#975e29;stroke-width:0.40000001;stroke-linecap:round;stroke-linejoin:miter;stroke-miterlimit:4;stroke-opacity:1;stroke-dasharray:none;display:inline"
         inkscape:connector-curvature="0" />
      <path
         d="m 11.12,33.01 5.47,-2.59"
         id="p4082"
         style="fill:none;stroke:#975e29;stroke-width:0.5;stroke-linecap:round;stroke-linejoin:miter;stroke-miterlimit:4;stroke-opacity:1;stroke-dasharray:none"
         inkscape:connector-curvature="0" />
      <path
         d="m 14.25,34.11 5.79,-2.6"
         id="p4080"
         style="fill:none;stroke:#975e29;stroke-width:0.60000002;stroke-linecap:round;stroke-linejoin:miter;stroke-miterlimit:4;stroke-opacity:1;stroke-dasharray:none"
         inkscape:connector-curvature="0" />
      <path
         d="m 16.47,36.73 5.56,-2.62"
         id="p4078"
         style="fill:none;stroke:#975e29;stroke-width:0.69;stroke-linecap:butt;stroke-linejoin:miter;stroke-miterlimit:4;stroke-opacity:1;stroke-dasharray:none"
         inkscape:connector-curvature="0" />
      <path
         d="m 16.83,39.47 5.73,-2.66"
         id="p4076"
         style="fill:none;stroke:#975e29;stroke-width:0.60000002;stroke-linecap:round;stroke-linejoin:miter;stroke-miterlimit:4;stroke-opacity:1;stroke-dasharray:none"
         inkscape:connector-curvature="0" />
    </g>
    <path
       inkscape:connector-curvature="0"
       style="fill:#945b00;fill-opacity:1;fill-rule:nonzero;stroke:none;marker:none;visibility:visible;display:inline;overflow:visible;enable-background:accumulate"
       id="p3881-5"
       d="m 4.75,31.68 c -0.32,0 -0.61,0.09 -0.87,0.25 -1.04,0.65 -1.01,2.37 0.03,3.84 0.56,0.8 1.15,1.42 1.82,1.79 l 6.34,3.25 c 0.27,0.19 0.56,0.33 0.84,0.46 1.15,0.56 2.31,0.67 3.19,0.13 1.57,-0.98 1.55,-3.58 -0.03,-5.81 -1.01,-1.42 -2.41,-2.33 -3.69,-2.57 l 0,-0.03 c -0.26,-0.02 -7.24,-1.29 -7.5,-1.31 -0.02,0 -0.04,0 -0.06,0 -0.02,0 -0.05,0 -0.07,0 l 0,0 z" />
    <path
       inkscape:connector-curvature="0"
       style="fill:#39200b;fill-opacity:1;fill-rule:nonzero;stroke:none;marker:none;visibility:visible;display:inline;overflow:visible;enable-background:accumulate"
       id="p3881-5-7"
       d="m 5.64,32.71 c -0.28,-0.01 -0.53,0.03 -0.77,0.13 -0.92,0.41 -1,1.66 -0.18,2.79 0.43,0.61 0.9,1.1 1.46,1.41 l 5.25,2.73 c 0.23,0.16 0.47,0.28 0.7,0.39 0.96,0.48 1.95,0.62 2.73,0.28 1.41,-0.61 1.53,-2.5 0.3,-4.21 -0.78,-1.09 -1.93,-1.83 -3.02,-2.08 l 0,-0.02 C 11.89,34.1 5.97,32.76 5.75,32.72 c -0.02,0 -0.04,0 -0.06,0 -0.01,0 -0.03,0 -0.05,-0.01 l 0,0 z" />
    <path
       inkscape:connector-curvature="0"
       style="fill:#643c1c;fill-opacity:1;fill-rule:nonzero;stroke:none;marker:none;visibility:visible;display:inline;overflow:visible;enable-background:accumulate"
       id="p3881-5-7-4"
       d="m 6.41,32.89 c 0.02,0.45 0.21,0.92 0.56,1.4 0.44,0.61 0.91,1.1 1.47,1.41 l 5.25,2.75 c 0.22,0.16 0.45,0.26 0.68,0.37 0.5,0.25 1.02,0.43 1.5,0.47 0.28,-0.85 0.02,-1.99 -0.75,-3.06 -0.78,-1.09 -1.91,-1.84 -3,-2.09 -0.19,-0.03 -4.57,-1.01 -5.71,-1.25 l 0,0 z" />
    <path
       inkscape:connector-curvature="0"
       style="fill:none;stroke:#2c1b06;stroke-width:0.69;stroke-miterlimit:4;stroke-opacity:1;stroke-dasharray:none;marker:none;visibility:visible;display:inline;overflow:visible;enable-background:accumulate"
       id="p3881-6"
       d="m 10.31,29.11 c -0.68,0.03 -1.25,0.47 -1.87,0.71 -1.04,0.46 -1.92,0.93 -2.91,1.38 -0.56,0.27 -1.16,0.51 -1.72,0.78 -0.94,0.68 -0.8,2.03 -0.37,2.97 0.5,1.25 1.49,2.23 2.65,2.81 2.04,0.96 4.13,2.01 6.1,3.13 1.11,0.68 2.59,1.24 3.84,0.56 1.91,-0.93 3.87,-1.77 5.69,-2.66 1.12,-0.75 1.29,-2.32 0.97,-3.53 -0.59,-2.22 -2.35,-4.22 -4.63,-4.78 -0.79,-0.2 -1.69,-0.3 -2.53,-0.47 -1.74,-0.29 -3.48,-0.66 -5.22,-0.9 l 0,0 z" />
    <path
       inkscape:connector-curvature="0"
       style="fill:#707070;fill-opacity:1;fill-rule:nonzero;stroke:none;marker:none;visibility:visible;display:inline;overflow:visible;enable-background:accumulate"
       id="p3881-7-3-7"
       d="m 7.43,33.11 c -0.23,0.09 -0.52,0.24 -0.78,0.34 -0.59,0.36 -0.59,1.33 0,2.16 0.59,0.83 1.54,1.2 2.12,0.84 0.3,-0.13 0.53,-0.24 0.79,-0.34 0.58,-0.37 0.58,-1.33 0,-2.16 C 9.42,33.76 9.25,33.62 9.09,33.48 8.53,33.36 7.99,33.23 7.43,33.11 l 0,0 z" />
    <path
       inkscape:connector-curvature="0"
       style="fill:#363636;fill-opacity:1;fill-rule:nonzero;stroke:none;marker:none;visibility:visible;display:inline;overflow:visible;enable-background:accumulate"
       id="p3881-7-3"
       d="M 8.75,36.15 C 8.18,36.51 7.25,36.14 6.68,35.34 6.1,34.53 6.1,33.59 6.66,33.23 c 0.57,-0.35 1.5,0.01 2.08,0.82 0.57,0.8 0.58,1.74 0.01,2.1 l 0,0 z" />
    <path
       inkscape:connector-curvature="0"
       style="fill:#707070;fill-opacity:1;fill-rule:nonzero;stroke:none;marker:none;visibility:visible;display:inline;overflow:visible;enable-background:accumulate"
       id="p3881-7-3-7-7"
       d="m 12.99,34.45 c -0.09,0.03 -0.2,0.04 -0.28,0.09 -0.31,0.13 -0.68,0.34 -1.03,0.47 -0.79,0.49 -0.79,1.79 0,2.91 0.79,1.12 2.08,1.65 2.88,1.15 0.4,-0.17 0.68,-0.33 1.03,-0.46 0.14,-0.09 0.28,-0.21 0.37,-0.35 -0.07,-0.64 -0.36,-1.35 -0.84,-2.03 -0.57,-0.8 -1.33,-1.41 -2.13,-1.78 z" />
    <path
       inkscape:connector-curvature="0"
       style="fill:#363636;fill-opacity:1;fill-rule:nonzero;stroke:none;marker:none;visibility:visible;display:inline;overflow:visible;enable-background:accumulate"
       id="p3881-7-3-8"
       d="m 14.41,38.93 c -0.78,0.47 -2.04,-0.05 -2.82,-1.17 -0.78,-1.12 -0.77,-2.42 0.01,-2.89 0.78,-0.47 2.05,0.05 2.82,1.17 0.78,1.12 0.77,2.42 -0.01,2.89 l 0,0 z" />
    <path
       inkscape:connector-curvature="0"
       style="fill:none;stroke:#191919;stroke-width:0.30000001;stroke-miterlimit:4;stroke-opacity:1;stroke-dasharray:none;marker:none;visibility:visible;display:inline;overflow:visible;enable-background:accumulate"
       id="p3881-7-3-7-9"
       d="m 7.43,33.11 c -0.23,0.09 -0.52,0.24 -0.78,0.34 -0.59,0.36 -0.59,1.33 0,2.16 0.59,0.83 1.54,1.2 2.12,0.84 0.3,-0.13 0.53,-0.24 0.79,-0.34 0.58,-0.37 0.58,-1.33 0,-2.16 C 9.42,33.76 9.25,33.62 9.09,33.48" />
    <path
       inkscape:connector-curvature="0"
       style="fill:none;stroke:#191919;stroke-width:0.30000001;stroke-miterlimit:4;stroke-opacity:1;stroke-dasharray:none;marker:none;visibility:visible;display:inline;overflow:visible;enable-background:accumulate"
       id="p3881-7-3-7-7-7"
       d="m 12.99,34.45 c -0.09,0.03 -0.2,0.04 -0.28,0.09 -0.31,0.13 -0.68,0.34 -1.03,0.47 -0.79,0.49 -0.79,1.79 0,2.91 0.79,1.12 2.08,1.65 2.88,1.15 0.4,-0.17 0.68,-0.33 1.03,-0.46 0.14,-0.09 0.28,-0.21 0.37,-0.35" />
    <path
       inkscape:connector-curvature="0"
       style="fill:none;stroke:#2c1b06;stroke-width:0.30000001;stroke-miterlimit:4;stroke-opacity:1;stroke-dasharray:none;marker:none;visibility:visible;display:inline;overflow:visible;enable-background:accumulate"
       id="p3881-5-7-8"
       d="m 5.64,32.71 c -0.28,-0.01 -0.53,0.03 -0.77,0.13 -0.92,0.41 -1,1.66 -0.18,2.79 0.43,0.61 0.9,1.1 1.46,1.41 l 5.25,2.73 c 0.23,0.16 0.47,0.28 0.7,0.39 0.96,0.48 1.95,0.62 2.73,0.28 1.41,-0.61 1.53,-2.5 0.3,-4.21 -0.78,-1.09 -1.93,-1.83 -3.02,-2.08 -2.07,-0.48 -4.25,-0.98 -6.36,-1.43 -0.02,0 -0.04,0 -0.06,0 -0.01,0 -0.03,0 -0.05,-0.01 l 0,0 z" />
    <path
       inkscape:connector-curvature="0"
       style="fill:#535353;fill-opacity:1;fill-rule:nonzero;stroke:none;marker:none;visibility:visible;display:inline;overflow:visible;enable-background:accumulate"
       id="p3881-7-3-1"
       d="m 8.3,35.71 c -0.3,0.2 -0.81,0 -1.13,-0.46 -0.31,-0.46 -0.32,-1 -0.01,-1.21 0.31,-0.2 0.81,0.01 1.13,0.47 0.32,0.46 0.32,0.99 0.01,1.2 l 0,0 z" />
    <path
       inkscape:connector-curvature="0"
       style="fill:#202020;fill-opacity:1;fill-rule:nonzero;stroke:none;marker:none;visibility:visible;display:inline;overflow:visible;enable-background:accumulate"
       id="p3881-7-3-1-6"
       d="m 7.43,34.04 c -0.15,0.26 -0.11,0.66 0.16,1.03 0.24,0.35 0.57,0.56 0.87,0.57 0.01,0 0.02,0 0.03,0 C 8.63,35.38 8.56,34.94 8.31,34.57 8.07,34.24 7.72,34.06 7.43,34.04 l 0,0 z" />
    <path
       d="m 39.28,14.47 -12,6.06 0,1.09 12,-6.06 0,-1.09 z"
       id="p5068"
       style="fill:#900000;fill-opacity:1;stroke:none;marker:none;visibility:visible;display:inline"
       inkscape:connector-curvature="0" />
    <path
       d="m 35.24,17.1 2.85,-1.48"
       id="p5093"
       style="fill:none;stroke:#ff0b0b;stroke-width:1.38;stroke-linecap:round;stroke-linejoin:miter;stroke-miterlimit:4;stroke-opacity:1;stroke-dasharray:none;display:inline"
       inkscape:connector-curvature="0" />
    <path
       d="m 29.09,20.2 2.86,-1.47"
       id="p5093-1"
       style="fill:none;stroke:#ff0b0b;stroke-width:1.38;stroke-linecap:round;stroke-linejoin:miter;stroke-miterlimit:4;stroke-opacity:1;stroke-dasharray:none;display:inline"
       inkscape:connector-curvature="0" />
  </g>
</svg>
